<svg width="110" height="40" viewBox="0 0 110 40" fill="none" xmlns="http://www.w3.org/2000/svg">
<path d="M24 27C28.4183 27 32 23.4183 32 19C32 14.5817 28.4183 11 24 11C19.5817 11 16 14.5817 16 19C16 23.4183 19.5817 27 24 27Z" stroke="black" stroke-width="2" stroke-linecap="round" stroke-linejoin="round"/>
<path d="M33.9999 28.9999L29.6499 24.6499" stroke="black" stroke-width="2" stroke-linecap="round" stroke-linejoin="round"/>
<path d="M67 30C67.5523 30 68 29.5523 68 29C68 28.4477 67.5523 28 67 28C66.4477 28 66 28.4477 66 29C66 29.5523 66.4477 30 67 30Z" stroke="black" stroke-width="2" stroke-linecap="round" stroke-linejoin="round"/>
<path d="M78 30C78.5523 30 79 29.5523 79 29C79 28.4477 78.5523 28 78 28C77.4477 28 77 28.4477 77 29C77 29.5523 77.4477 30 78 30Z" stroke="black" stroke-width="2" stroke-linecap="round" stroke-linejoin="round"/>
<path d="M59 9H63L65.68 22.39C65.7714 22.8504 66.0219 23.264 66.3876 23.5583C66.7532 23.8526 67.2107 24.009 67.68 24H77.4C77.8693 24.009 78.3268 23.8526 78.6925 23.5583C79.0581 23.264 79.3086 22.8504 79.4 22.39L81 14H64" stroke="black" stroke-width="2" stroke-linecap="round" stroke-linejoin="round"/>
</svg>
